<svg xmlns="http://www.w3.org/2000/svg" viewBox="0 0 347.88 151.56"><defs><style>.cls-1{fill:#69c300;}</style></defs><title>logo</title><g id="typo"><path class="cls-1" d="M236.14,385.57q-5.82-5.4-6.19-15.05c-.06-1.47-.08-3.82-.08-7.06s0-5.6.08-7.07q.3-9.43,6.23-14.79t16.26-5.35a27.88,27.88,0,0,1,12.05,2.39,19.64,19.64,0,0,1,7.64,5.93,12.76,12.76,0,0,1,2.73,6.95,1.51,1.51,0,0,1-.46,1.14,1.61,1.61,0,0,1-1.21.46h-8a1.74,1.74,0,0,1-1.14-.31,2.48,2.48,0,0,1-.68-1,10.62,10.62,0,0,0-3.73-4.79,11.83,11.83,0,0,0-7.22-2q-5.33,0-8.32,2.85T241,356.77c-.06,1.47-.08,3.7-.08,6.69s0,5.16.08,6.68q.15,6.17,3.19,9.09t8.36,2.92a12.59,12.59,0,0,0,8.66-2.89q3.27-2.88,3.27-8.66v-2.36h-9.27a1.83,1.83,0,0,1-1.83-1.82v-4.18a1.83,1.83,0,0,1,1.83-1.82h18.24a1.82,1.82,0,0,1,1.36.53,1.73,1.73,0,0,1,.54,1.29v8.05a21,21,0,0,1-2.81,11,18.53,18.53,0,0,1-8,7.18A27.38,27.38,0,0,1,252.44,391Q242,391,236.14,385.57Z" transform="translate(-93.19 -321.09)"/><path class="cls-1" d="M284.59,389.67a1.72,1.72,0,0,1-.53-1.29V352.59a1.82,1.82,0,0,1,.53-1.37,1.76,1.76,0,0,1,1.29-.53h6.23a1.82,1.82,0,0,1,1.9,1.9v3.11c2.54-3.34,6.18-5,10.95-5h3.19a1.69,1.69,0,0,1,1.82,1.82v5.55a1.81,1.81,0,0,1-.49,1.29,1.7,1.7,0,0,1-1.33.53h-6a7.1,7.1,0,0,0-7.67,7.68v20.82a1.83,1.83,0,0,1-1.83,1.83h-6.76A1.73,1.73,0,0,1,284.59,389.67Z" transform="translate(-93.19 -321.09)"/><path class="cls-1" d="M319,386.1q-5-4.86-5.28-13.83l-.08-1.9q0-9.5,5-15t13.79-5.47q9,0,13.95,5.47t4.9,14.59v1.6a1.77,1.77,0,0,1-.53,1.29,1.88,1.88,0,0,1-1.37.53H324.11V374a11.74,11.74,0,0,0,2.32,7,7.13,7.13,0,0,0,6,2.77,8.57,8.57,0,0,0,7.07-3.49,4.12,4.12,0,0,1,1.07-1,3.22,3.22,0,0,1,1.29-.19h6.69a1.89,1.89,0,0,1,1.17.38,1.28,1.28,0,0,1,.5,1.07q0,1.81-2.17,4.29a17.8,17.8,0,0,1-6.19,4.29,22.41,22.41,0,0,1-9.35,1.83Q324,391,319,386.1ZM340.75,367v-.15a10.84,10.84,0,0,0-2.24-7.18,7.52,7.52,0,0,0-6.12-2.7,7.43,7.43,0,0,0-6.08,2.7,11,11,0,0,0-2.2,7.18V367Z" transform="translate(-93.19 -321.09)"/><path class="cls-1" d="M362.91,386.1q-5-4.86-5.29-13.83l-.07-1.9q0-9.5,5-15t13.79-5.47q9,0,13.95,5.47t4.9,14.59v1.6a1.77,1.77,0,0,1-.53,1.29,1.88,1.88,0,0,1-1.37.53H368V374a11.8,11.8,0,0,0,2.31,7,7.17,7.17,0,0,0,6,2.77,8.58,8.58,0,0,0,7.07-3.49,4.13,4.13,0,0,1,1.06-1,3.29,3.29,0,0,1,1.29-.19h6.69a1.89,1.89,0,0,1,1.18.38,1.28,1.28,0,0,1,.49,1.07q0,1.81-2.16,4.29a17.85,17.85,0,0,1-6.2,4.29A22.37,22.37,0,0,1,376.4,391Q367.88,391,362.91,386.1ZM384.68,367v-.15a10.9,10.9,0,0,0-2.24-7.18,7.55,7.55,0,0,0-6.12-2.7,7.43,7.43,0,0,0-6.08,2.7,11,11,0,0,0-2.2,7.18V367Z" transform="translate(-93.19 -321.09)"/><path class="cls-1" d="M403.75,389.67a1.76,1.76,0,0,1-.53-1.29V352.51a1.74,1.74,0,0,1,.53-1.33,1.85,1.85,0,0,1,1.3-.49h6.31a1.7,1.7,0,0,1,1.82,1.82v3.12q4.63-5.7,12.69-5.7,7,0,11.1,4.56t4.1,12.54v21.35a1.81,1.81,0,0,1-.49,1.29,1.73,1.73,0,0,1-1.33.54h-6.84a1.84,1.84,0,0,1-1.83-1.83v-20.9a10.11,10.11,0,0,0-2.16-6.88,7.83,7.83,0,0,0-6.2-2.46,8.15,8.15,0,0,0-6.23,2.5,9.6,9.6,0,0,0-2.36,6.84v20.9a1.81,1.81,0,0,1-.49,1.29,1.71,1.71,0,0,1-1.33.54h-6.76A1.77,1.77,0,0,1,403.75,389.67Z" transform="translate(-93.19 -321.09)"/><path class="cls-1" d="M243.93,457.68a1.76,1.76,0,0,1-.53-1.3V414.51H229.34A1.8,1.8,0,0,1,228,414a1.88,1.88,0,0,1-.53-1.37v-5.7a1.92,1.92,0,0,1,.5-1.37,1.74,1.74,0,0,1,1.33-.53h38.83a1.86,1.86,0,0,1,1.37.53,1.82,1.82,0,0,1,.53,1.37v5.7a1.84,1.84,0,0,1-.53,1.37,1.86,1.86,0,0,1-1.37.53h-14v41.87a1.89,1.89,0,0,1-.49,1.3,1.75,1.75,0,0,1-1.33.53h-7.15A1.76,1.76,0,0,1,243.93,457.68Z" transform="translate(-93.19 -321.09)"/><path class="cls-1" d="M276.61,411.7a1.76,1.76,0,0,1-.53-1.3v-5.54a1.82,1.82,0,0,1,.53-1.37,1.72,1.72,0,0,1,1.29-.53h7a1.84,1.84,0,0,1,1.37.53,1.86,1.86,0,0,1,.53,1.37v5.54a1.72,1.72,0,0,1-.57,1.3,1.9,1.9,0,0,1-1.33.53h-7A1.76,1.76,0,0,1,276.61,411.7Zm.3,46a1.8,1.8,0,0,1-.53-1.3V420.51a1.74,1.74,0,0,1,.53-1.33,1.84,1.84,0,0,1,1.29-.49h6.46a1.8,1.8,0,0,1,1.3.53,1.77,1.77,0,0,1,.53,1.29v35.87a1.81,1.81,0,0,1-1.83,1.83H278.2A1.79,1.79,0,0,1,276.91,457.68Z" transform="translate(-93.19 -321.09)"/><path class="cls-1" d="M297.13,472.15a1.7,1.7,0,0,1-.53-1.33V420.51a1.7,1.7,0,0,1,.53-1.33,1.81,1.81,0,0,1,1.29-.49h6.08a1.88,1.88,0,0,1,1.37.53,1.77,1.77,0,0,1,.53,1.29v3q4-5.62,12.08-5.62,7.68,0,11.78,4.82t4.41,13c.05.61.08,1.52.08,2.74s0,2.13-.08,2.73q-.23,8-4.37,12.89T318.48,459q-7.59,0-11.62-5.4v17.25a1.72,1.72,0,0,1-1.83,1.83h-6.61A1.81,1.81,0,0,1,297.13,472.15Zm27.13-31.42c.05-.51.08-1.27.08-2.28s0-1.78-.08-2.28q-.52-10-8.66-10c-2.89,0-5.05.93-6.46,2.81a11.73,11.73,0,0,0-2.28,6.84c-.06.61-.08,1.57-.08,2.89s0,2.3.08,3a10.46,10.46,0,0,0,2.35,6.46,7.84,7.84,0,0,0,6.39,2.66Q323.73,450.76,324.26,440.73Z" transform="translate(-93.19 -321.09)"/><path class="cls-1" d="M348.58,457.22a15.29,15.29,0,0,1-5.74-4.07,6.85,6.85,0,0,1-1.86-4,1.56,1.56,0,0,1,.49-1.21,1.67,1.67,0,0,1,1.18-.46h6.23a1.34,1.34,0,0,1,1.07.61q.38.3,1.71,1.44a10,10,0,0,0,3,1.79,10.56,10.56,0,0,0,3.76.65,9.31,9.31,0,0,0,4.94-1.18,3.75,3.75,0,0,0,1.9-3.38,3.5,3.5,0,0,0-.87-2.47,7.87,7.87,0,0,0-3.12-1.75,61.28,61.28,0,0,0-6.73-1.79q-6.45-1.37-9.53-4.18a9.56,9.56,0,0,1-3.08-7.45,10.08,10.08,0,0,1,1.82-5.73,13.15,13.15,0,0,1,5.44-4.41,20,20,0,0,1,8.62-1.71,22,22,0,0,1,8.89,1.63,15.47,15.47,0,0,1,5.67,3.92,6.63,6.63,0,0,1,1.93,4,1.69,1.69,0,0,1-1.67,1.68H367a1.52,1.52,0,0,1-1.29-.61c-.35-.26-.93-.72-1.71-1.41a9.75,9.75,0,0,0-2.62-1.63,9,9,0,0,0-3.5-.61,6.79,6.79,0,0,0-4.33,1.22,3.89,3.89,0,0,0-1.52,3.19,3.57,3.57,0,0,0,.72,2.28,6.65,6.65,0,0,0,2.93,1.71,46.73,46.73,0,0,0,6.61,1.63q13.68,2.67,13.68,11.93a10.28,10.28,0,0,1-4.67,8.74q-4.68,3.35-13,3.35A23.55,23.55,0,0,1,348.58,457.22Z" transform="translate(-93.19 -321.09)"/></g><g id="logo"><g id="arbre"><g id="tronc"><path class="cls-1" d="M140.07,428.81a32.61,32.61,0,0,0,4.78-6.62,38.48,38.48,0,0,0,3.75-9.12,46.49,46.49,0,0,0,5.32,20,96.22,96.22,0,0,1-9.82.59c-3.37,0-6.5-.11-9.35-.35A31.73,31.73,0,0,0,140.07,428.81Z" transform="translate(-93.19 -321.09)"/><path class="cls-1" d="M135.66,430.34a62.27,62.27,0,0,0,5.35-6.7,63.21,63.21,0,0,0,7-13.28,27.53,27.53,0,0,1,.71-7.25,28.6,28.6,0,0,1,6.95-12.88,47.84,47.84,0,0,0-4.43,3.06,50.51,50.51,0,0,0-13.49,16.19c0,2.65-.1,5.49-.35,8.49A103.22,103.22,0,0,1,135.66,430.34Z" transform="translate(-93.19 -321.09)"/><path class="cls-1" d="M137.23,406.3c.58-.93,1.21-1.9,1.9-2.88,1.15-1.63,2.3-3.09,3.43-4.4a25.66,25.66,0,0,0-2.46-3.49,59.15,59.15,0,0,0-11.59-9.61,39.78,39.78,0,0,1,4.69,7.25A40.4,40.4,0,0,1,137.23,406.3Z" transform="translate(-93.19 -321.09)"/></g><g id="pétales"><path class="cls-1" d="M142.75,368.33s-9-10.5-.15-22.21C142.6,346.12,151.42,355.4,142.75,368.33Z" transform="translate(-93.19 -321.09)"/><path class="cls-1" d="M157.88,349.66s1.14,9.9-10.31,13.87c0,0-.66-10.73,10.31-13.87" transform="translate(-93.19 -321.09)"/><path class="cls-1" d="M172.74,364.89s-3.33,11.61-18,10.73c0,0,4.25-12.31,18-10.73" transform="translate(-93.19 -321.09)"/><path class="cls-1" d="M162.23,380.51s-4.47,1.46-7.38-3.46a6.54,6.54,0,0,1,7.38,3.46" transform="translate(-93.19 -321.09)"/><path class="cls-1" d="M122.05,355.43s-.54,11.47,12.93,15.15c0,0-.07-12.38-12.93-15.15" transform="translate(-93.19 -321.09)"/><path class="cls-1" d="M117.32,373.38s6.4,7.67,17.2,2.11c0,0-7.33-7.9-17.2-2.11" transform="translate(-93.19 -321.09)"/><path class="cls-1" d="M123.54,381.58s3.76,1.43,6.45-2.66a5.6,5.6,0,0,0-6.45,2.66" transform="translate(-93.19 -321.09)"/><g id="pétales_-_copie" data-name="pétales - copie"><path class="cls-1" d="M146.45,367s1.84,3.67-2,6.83a5.71,5.71,0,0,1,2-6.83" transform="translate(-93.19 -321.09)"/><path class="cls-1" d="M155,370.76s-1.71,6-9.23,5.51a8.63,8.63,0,0,1,9.23-5.51" transform="translate(-93.19 -321.09)"/><path class="cls-1" d="M154.22,378.65s-3.39,3.15-8,0a6.44,6.44,0,0,1,8,0" transform="translate(-93.19 -321.09)"/><path class="cls-1" d="M136.18,362.23s-2.15,4.84,3,8.67a7.38,7.38,0,0,0-3-8.67" transform="translate(-93.19 -321.09)"/><path class="cls-1" d="M134.76,372.49s.91,3.82,5.69,3.76a5.47,5.47,0,0,0-5.69-3.76" transform="translate(-93.19 -321.09)"/><path class="cls-1" d="M131.92,379.12s3.44,3.19,8.14-.06a6.52,6.52,0,0,0-8.14.06" transform="translate(-93.19 -321.09)"/></g><g id="Calque_7" data-name="Calque 7"><path class="cls-1" d="M160.94,376.73s3.79,2.78,8.09-1a6.54,6.54,0,0,0-8.09,1" transform="translate(-93.19 -321.09)"/><path class="cls-1" d="M113.66,369.78s2.66,2.47,6.29,0a5.05,5.05,0,0,0-6.29,0" transform="translate(-93.19 -321.09)"/><path class="cls-1" d="M154.39,368.23s4.7.19,6.16-5.33a6.53,6.53,0,0,0-6.16,5.33" transform="translate(-93.19 -321.09)"/><path class="cls-1" d="M127.1,369s-4.14,2.23-7.88-2.1a6.56,6.56,0,0,1,7.88,2.1" transform="translate(-93.19 -321.09)"/><path class="cls-1" d="M149.15,369s4.64-.73,5-6.43a6.53,6.53,0,0,0-5,6.43" transform="translate(-93.19 -321.09)"/><path class="cls-1" d="M136.1,358.46s-3.5-3.14-.7-8.12a6.55,6.55,0,0,1,.7,8.12" transform="translate(-93.19 -321.09)"/><path class="cls-1" d="M123.06,364.37a4.29,4.29,0,0,1-3.78-3.9,4.36,4.36,0,0,1,3.78,3.9" transform="translate(-93.19 -321.09)"/><path class="cls-1" d="M148.24,355.38s2.87-1.78,1.52-5.66a4.69,4.69,0,0,0-1.52,5.66" transform="translate(-93.19 -321.09)"/><path class="cls-1" d="M134.6,361.92a4.3,4.3,0,0,1-2.7-4.71,4.35,4.35,0,0,1,2.7,4.71" transform="translate(-93.19 -321.09)"/><path class="cls-1" d="M156.58,362.29s3.36-1.52,2.44-5.91a5.13,5.13,0,0,0-2.44,5.91" transform="translate(-93.19 -321.09)"/></g></g></g><path class="cls-1" d="M171.18,437.7a119.07,119.07,0,0,1-55.76,0v-7.44a126.92,126.92,0,0,0,55.76,0Z" transform="translate(-93.19 -321.09)"/><polygon class="cls-1" points="22.17 123.13 30.45 124.84 30.45 128.37 70.15 128.37 70.15 124.84 78.19 123.13 78.19 136.89 22.17 136.89 22.17 123.13"/><path class="cls-1" d="M123.37,424.78l-8.65-1.67s-1.43-6.54-7-15.62-15.23-19.77-14.5-38.07,14.65-48.33,49.79-48.33,46.56,32.22,46.56,32.22,9.52,19-4,43.78a77.15,77.15,0,0,1-7.32,9.37c-3.66,3.81-7.76,14.21-7.76,16.7l-8.79,2.19a54.7,54.7,0,0,1,10.25-24c8.64-11.13,15.67-20.8,11.13-41.15s-23.72-30.9-40.56-30.9-29.73,9.08-37.49,24.75-.73,31.63-.73,31.63,3.37,7.47,6.3,11.42a116.34,116.34,0,0,1,8.78,15.52C120.76,415.54,123.49,421.29,123.37,424.78Z" transform="translate(-93.19 -321.09)"/></g></svg>